<?xml version="1.0" encoding="UTF-8" standalone="no"?>
<!-- Created with Inkscape (http://www.inkscape.org/) -->

<svg
   xmlns:dc="http://purl.org/dc/elements/1.1/"
   xmlns:cc="http://creativecommons.org/ns#"
   xmlns:rdf="http://www.w3.org/1999/02/22-rdf-syntax-ns#"
   xmlns:svg="http://www.w3.org/2000/svg"
   xmlns="http://www.w3.org/2000/svg"
   xmlns:sodipodi="http://sodipodi.sourceforge.net/DTD/sodipodi-0.dtd"
   xmlns:inkscape="http://www.inkscape.org/namespaces/inkscape"
   width="1330.0813"
   height="927.27094"
   id="svg2"
   version="1.1"
   inkscape:version="0.48.4 r9939"
   sodipodi:docname="icon.svg"
   inkscape:export-filename="C:\Users\qba\Source\Repos\Qooba.ServerlessFabric\github\ServerlessFabric\icon.png"
   inkscape:export-xdpi="9.9962769"
   inkscape:export-ydpi="9.9962769">
  <defs
     id="defs4">
    <filter
       inkscape:collect="always"
       id="filter3803"
       color-interpolation-filters="sRGB">
      <feGaussianBlur
         inkscape:collect="always"
         stdDeviation="3.3214286"
         id="feGaussianBlur3805" />
    </filter>
  </defs>
  <sodipodi:namedview
     id="base"
     pagecolor="#ffffff"
     bordercolor="#666666"
     borderopacity="1.0"
     inkscape:pageopacity="0.0"
     inkscape:pageshadow="2"
     inkscape:zoom="0.35"
     inkscape:cx="671.32636"
     inkscape:cy="236.63547"
     inkscape:document-units="px"
     inkscape:current-layer="g3807"
     showgrid="false"
     fit-margin-top="0"
     fit-margin-left="0"
     fit-margin-right="0"
     fit-margin-bottom="0"
     inkscape:window-width="1280"
     inkscape:window-height="657"
     inkscape:window-x="-8"
     inkscape:window-y="-8"
     inkscape:window-maximized="1" />
  <metadata
     id="metadata7">
    <rdf:RDF>
      <cc:Work
         rdf:about="">
        <dc:format>image/svg+xml</dc:format>
        <dc:type
           rdf:resource="http://purl.org/dc/dcmitype/StillImage" />
        <dc:title></dc:title>
      </cc:Work>
    </rdf:RDF>
  </metadata>
  <g
     inkscape:label="Layer 1"
     inkscape:groupmode="layer"
     id="layer1"
     transform="translate(346.32636,133.98758)">
    <g
       id="g3807"
       transform="translate(-94.285714,-442.85714)">
      <g
         id="g3821">
        <g
           style="stroke:#ffffff;stroke-opacity:1"
           id="g3811">
          <path
             transform="matrix(0.99999715,-0.00238575,0.00238575,0.99999715,-49.125591,523.0214)"
             d="M 197.14285,460.93362 -65.091531,457.99402 -193.66295,229.42258 -59.999995,3.7907489 202.23438,6.7303487 330.80581,235.30178 z"
             inkscape:randomized="0"
             inkscape:rounded="0"
             inkscape:flatsided="true"
             sodipodi:arg2="1.5820056"
             sodipodi:arg1="1.0584069"
             sodipodi:r2="227.11591"
             sodipodi:r1="262.25085"
             sodipodi:cy="232.36218"
             sodipodi:cx="68.571426"
             sodipodi:sides="6"
             id="path3791"
             style="fill:#000000;fill-opacity:1;stroke:#ffffff;stroke-width:19.60000038;stroke-miterlimit:4;stroke-opacity:1;stroke-dasharray:none;stroke-dashoffset:0"
             sodipodi:type="star" />
          <path
             transform="matrix(0.6707203,0,0,0.6707203,174.75344,541.6518)"
             sodipodi:nodetypes="cccccssc"
             inkscape:connector-curvature="0"
             id="path2985"
             d="m -302.85714,72.362183 -114.28572,231.428567 151.42857,0 -140,285.71429 357.14286,-342.85715 c 0,0 -202.85714,-2.85714 -197.14286,-2.85714 5.71429,0 171.42858,-167.142857 182.85715,-167.142857 11.42857,0 -240,-4.28571 -240,-4.28571 z"
             style="fill:#f0a513;stroke:#ffffff;stroke-width:7.90046167;stroke-linecap:butt;stroke-linejoin:miter;stroke-miterlimit:4;stroke-opacity:1;stroke-dasharray:none;filter:url(#filter3803)" />
        </g>
      </g>
      <g
         id="g3826"
         transform="translate(390.85714,242.85714)">
        <g
           id="g3828"
           style="stroke:#ffffff;stroke-opacity:1">
          <path
             sodipodi:type="star"
             style="fill:#000000;fill-opacity:1;stroke:#ffffff;stroke-width:19.60000038;stroke-miterlimit:4;stroke-opacity:1;stroke-dasharray:none;stroke-dashoffset:0"
             id="path3830"
             sodipodi:sides="6"
             sodipodi:cx="68.571426"
             sodipodi:cy="232.36218"
             sodipodi:r1="262.25085"
             sodipodi:r2="227.11591"
             sodipodi:arg1="1.0584069"
             sodipodi:arg2="1.5820056"
             inkscape:flatsided="true"
             inkscape:rounded="0"
             inkscape:randomized="0"
             d="M 197.14285,460.93362 -65.091531,457.99402 -193.66295,229.42258 -59.999995,3.7907489 202.23438,6.7303487 330.80581,235.30178 z"
             transform="matrix(0.99999715,-0.00238575,0.00238575,0.99999715,-49.125591,523.0214)" />
          <path
             style="fill:#f0a513;stroke:none;filter:url(#filter3803)"
             d="m -302.85714,72.362183 -114.28572,231.428567 151.42857,0 -140,285.71429 357.14286,-342.85715 c 0,0 -202.85714,-2.85714 -197.14286,-2.85714 5.71429,0 171.42858,-167.142857 182.85715,-167.142857 11.42857,0 -240,-4.28571 -240,-4.28571 z"
             id="path3832"
             inkscape:connector-curvature="0"
             sodipodi:nodetypes="cccccssc"
             transform="matrix(0.6707203,0,0,0.6707203,174.75344,541.6518)" />
        </g>
      </g>
      <g
         transform="translate(401.14285,-208.28572)"
         id="g3834">
        <g
           style="stroke:#ffffff;stroke-opacity:1"
           id="g3836">
          <path
             transform="matrix(0.99999715,-0.00238575,0.00238575,0.99999715,-49.125591,523.0214)"
             d="M 197.14285,460.93362 -65.091531,457.99402 -193.66295,229.42258 -59.999995,3.7907489 202.23438,6.7303487 330.80581,235.30178 z"
             inkscape:randomized="0"
             inkscape:rounded="0"
             inkscape:flatsided="true"
             sodipodi:arg2="1.5820056"
             sodipodi:arg1="1.0584069"
             sodipodi:r2="227.11591"
             sodipodi:r1="262.25085"
             sodipodi:cy="232.36218"
             sodipodi:cx="68.571426"
             sodipodi:sides="6"
             id="path3838"
             style="fill:#000000;fill-opacity:1;stroke:#ffffff;stroke-width:19.60000038;stroke-miterlimit:4;stroke-opacity:1;stroke-dasharray:none;stroke-dashoffset:0"
             sodipodi:type="star" />
          <path
             transform="matrix(0.6707203,0,0,0.6707203,174.75344,541.6518)"
             sodipodi:nodetypes="cccccssc"
             inkscape:connector-curvature="0"
             id="path3840"
             d="m -302.85714,72.362183 -114.28572,231.428567 151.42857,0 -140,285.71429 357.14286,-342.85715 c 0,0 -202.85714,-2.85714 -197.14286,-2.85714 5.71429,0 171.42858,-167.142857 182.85715,-167.142857 11.42857,0 -240,-4.28571 -240,-4.28571 z"
             style="fill:#f0a513;stroke:none;filter:url(#filter3803)" />
        </g>
      </g>
      <g
         id="g3850"
         transform="translate(6,14)">
        <g
           id="g3852"
           style="stroke:#ffffff;stroke-opacity:1">
          <path
             sodipodi:type="star"
             style="fill:#000000;fill-opacity:1;stroke:#ffffff;stroke-width:19.60000038;stroke-miterlimit:4;stroke-opacity:1;stroke-dasharray:none;stroke-dashoffset:0"
             id="path3854"
             sodipodi:sides="6"
             sodipodi:cx="68.571426"
             sodipodi:cy="232.36218"
             sodipodi:r1="262.25085"
             sodipodi:r2="227.11591"
             sodipodi:arg1="1.0584069"
             sodipodi:arg2="1.5820056"
             inkscape:flatsided="true"
             inkscape:rounded="0"
             inkscape:randomized="0"
             d="M 197.14285,460.93362 -65.091531,457.99402 -193.66295,229.42258 -59.999995,3.7907489 202.23438,6.7303487 330.80581,235.30178 z"
             transform="matrix(0.99999715,-0.00238575,0.00238575,0.99999715,-49.125591,523.0214)" />
          <path
             style="fill:#f0a513;stroke:none;filter:url(#filter3803)"
             d="m -302.85714,72.362183 -114.28572,231.428567 151.42857,0 -140,285.71429 357.14286,-342.85715 c 0,0 -202.85714,-2.85714 -197.14286,-2.85714 5.71429,0 171.42858,-167.142857 182.85715,-167.142857 11.42857,0 -240,-4.28571 -240,-4.28571 z"
             id="path3856"
             inkscape:connector-curvature="0"
             sodipodi:nodetypes="cccccssc"
             transform="matrix(0.6707203,0,0,0.6707203,174.75344,541.6518)" />
        </g>
      </g>
      <g
         id="g3858"
         transform="translate(786,26)">
        <g
           id="g3860"
           style="stroke:#ffffff;stroke-opacity:1">
          <path
             sodipodi:type="star"
             style="fill:#000000;fill-opacity:1;stroke:#ffffff;stroke-width:19.60000038;stroke-miterlimit:4;stroke-opacity:1;stroke-dasharray:none;stroke-dashoffset:0"
             id="path3862"
             sodipodi:sides="6"
             sodipodi:cx="68.571426"
             sodipodi:cy="232.36218"
             sodipodi:r1="262.25085"
             sodipodi:r2="227.11591"
             sodipodi:arg1="1.0584069"
             sodipodi:arg2="1.5820056"
             inkscape:flatsided="true"
             inkscape:rounded="0"
             inkscape:randomized="0"
             d="M 197.14285,460.93362 -65.091531,457.99402 -193.66295,229.42258 -59.999995,3.7907489 202.23438,6.7303487 330.80581,235.30178 z"
             transform="matrix(0.99999715,-0.00238575,0.00238575,0.99999715,-49.125591,523.0214)" />
          <path
             style="fill:#f0a513;stroke:#ffffff;stroke-width:7.90046167;stroke-linecap:butt;stroke-linejoin:miter;stroke-miterlimit:4;stroke-opacity:1;stroke-dasharray:none;filter:url(#filter3803)"
             d="m -302.85714,72.362183 -114.28572,231.428567 151.42857,0 -140,285.71429 357.14286,-342.85715 c 0,0 -202.85714,-2.85714 -197.14286,-2.85714 5.71429,0 171.42858,-167.142857 182.85715,-167.142857 11.42857,0 -240,-4.28571 -240,-4.28571 z"
             id="path3864"
             inkscape:connector-curvature="0"
             sodipodi:nodetypes="cccccssc"
             transform="matrix(0.6707203,0,0,0.6707203,174.75344,541.6518)" />
        </g>
      </g>
      <g
         id="g3866"
         transform="translate(786,26)">
        <g
           style="stroke:#ffffff;stroke-opacity:1"
           id="g3868">
          <path
             transform="matrix(0.99999715,-0.00238575,0.00238575,0.99999715,-49.125591,523.0214)"
             d="M 197.14285,460.93362 -65.091531,457.99402 -193.66295,229.42258 -59.999995,3.7907489 202.23438,6.7303487 330.80581,235.30178 z"
             inkscape:randomized="0"
             inkscape:rounded="0"
             inkscape:flatsided="true"
             sodipodi:arg2="1.5820056"
             sodipodi:arg1="1.0584069"
             sodipodi:r2="227.11591"
             sodipodi:r1="262.25085"
             sodipodi:cy="232.36218"
             sodipodi:cx="68.571426"
             sodipodi:sides="6"
             id="path3870"
             style="fill:#000000;fill-opacity:1;stroke:#ffffff;stroke-width:19.60000038;stroke-miterlimit:4;stroke-opacity:1;stroke-dasharray:none;stroke-dashoffset:0"
             sodipodi:type="star" />
          <path
             transform="matrix(0.6707203,0,0,0.6707203,174.75344,541.6518)"
             sodipodi:nodetypes="cccccssc"
             inkscape:connector-curvature="0"
             id="path3872"
             d="m -302.85714,72.362183 -114.28572,231.428567 151.42857,0 -140,285.71429 357.14286,-342.85715 c 0,0 -202.85714,-2.85714 -197.14286,-2.85714 5.71429,0 171.42858,-167.142857 182.85715,-167.142857 11.42857,0 -240,-4.28571 -240,-4.28571 z"
             style="fill:#f0a513;stroke:none;filter:url(#filter3803)" />
        </g>
      </g>
    </g>
  </g>
</svg>
